<svg width="20" height="20" viewBox="0 0 20 20" fill="none" xmlns="http://www.w3.org/2000/svg">
<path fill-rule="evenodd" clip-rule="evenodd" d="M14.3341 0.75H5.66512C2.64412 0.75 0.750122 2.889 0.750122 5.916V14.084C0.750122 17.111 2.63512 19.25 5.66512 19.25H14.3331C17.3641 19.25 19.2501 17.111 19.2501 14.084V5.916C19.2501 2.889 17.3641 0.75 14.3341 0.75Z" stroke="#1A162E" stroke-width="1.5" stroke-linecap="round" stroke-linejoin="round"/>
<path fill-rule="evenodd" clip-rule="evenodd" d="M8.68947 10.0004C8.68947 11.0234 7.86047 11.8524 6.83747 11.8524C5.81447 11.8524 4.98547 11.0234 4.98547 10.0004C4.98547 8.97744 5.81447 8.14844 6.83747 8.14844H6.84047C7.86147 8.14944 8.68947 8.97844 8.68947 10.0004Z" stroke="#1A162E" stroke-width="1.5" stroke-linecap="round" stroke-linejoin="round"/>
<path d="M8.6925 10H15.0105V11.852" stroke="#1A162E" stroke-width="1.5" stroke-linecap="round" stroke-linejoin="round"/>
<path d="M12.1818 11.852V10" stroke="#1A162E" stroke-width="1.5" stroke-linecap="round" stroke-linejoin="round"/>
</svg>
